<mxfile host="app.diagrams.net" modified="2021-05-22T11:09:24.591Z" agent="5.0 (Windows NT 10.0; Win64; x64) AppleWebKit/537.36 (KHTML, like Gecko) Chrome/90.0.4430.41 YaBrowser/21.5.0.579 Yowser/2.5 Safari/537.36" etag="FMQJtjQq6q9JInb2pGXw" version="14.2.6" type="github">
  <diagram name="Page-1" id="b98fa263-6416-c6ec-5b7d-78bf54ef71d0">
    <mxGraphModel dx="1447" dy="858" grid="1" gridSize="10" guides="1" tooltips="1" connect="1" arrows="1" fold="1" page="1" pageScale="1.5" pageWidth="1169" pageHeight="826" background="none" math="0" shadow="0">
      <root>
        <mxCell id="0" style=";html=1;" />
        <mxCell id="1" style=";html=1;" parent="0" />
        <mxCell id="tj1XGYN1QX1Ru28_OsPs-1" value="&lt;font style=&quot;font-size: 20px&quot;&gt;ГЛАВНАЯ СТРАНИЦА&lt;/font&gt;" style="rounded=0;whiteSpace=wrap;html=1;fillColor=#ffe6cc;strokeColor=#d79b00;" vertex="1" parent="1">
          <mxGeometry x="800" y="80" width="160" height="90" as="geometry" />
        </mxCell>
        <mxCell id="tj1XGYN1QX1Ru28_OsPs-25" value="&lt;span style=&quot;font-size: 20px&quot;&gt;ПОИСК&lt;/span&gt;" style="rounded=0;whiteSpace=wrap;html=1;fillColor=#d5e8d4;strokeColor=#82b366;" vertex="1" parent="1">
          <mxGeometry x="1420" y="230" width="180" height="90" as="geometry" />
        </mxCell>
        <mxCell id="tj1XGYN1QX1Ru28_OsPs-26" value="&lt;span style=&quot;font-size: 20px&quot;&gt;КОНТАКТЫ&lt;/span&gt;" style="rounded=0;whiteSpace=wrap;html=1;fillColor=#d5e8d4;strokeColor=#82b366;" vertex="1" parent="1">
          <mxGeometry x="1220" y="230" width="160" height="90" as="geometry" />
        </mxCell>
        <mxCell id="tj1XGYN1QX1Ru28_OsPs-27" value="&lt;span style=&quot;font-size: 20px&quot;&gt;ДАТЫ &lt;br&gt;ЗАЕЗДОВ&lt;/span&gt;" style="rounded=0;whiteSpace=wrap;html=1;fillColor=#d5e8d4;strokeColor=#82b366;" vertex="1" parent="1">
          <mxGeometry x="405" y="230" width="160" height="90" as="geometry" />
        </mxCell>
        <mxCell id="tj1XGYN1QX1Ru28_OsPs-28" value="&lt;span style=&quot;font-size: 20px&quot;&gt;ОТЗЫВЫ&lt;/span&gt;" style="rounded=0;whiteSpace=wrap;html=1;fillColor=#d5e8d4;strokeColor=#82b366;" vertex="1" parent="1">
          <mxGeometry x="1000" y="230" width="160" height="90" as="geometry" />
        </mxCell>
        <mxCell id="tj1XGYN1QX1Ru28_OsPs-29" value="&lt;span style=&quot;font-size: 20px&quot;&gt;ГАЛЕРЕЯ&lt;/span&gt;" style="rounded=0;whiteSpace=wrap;html=1;fillColor=#d5e8d4;strokeColor=#82b366;" vertex="1" parent="1">
          <mxGeometry x="600" y="230" width="160" height="90" as="geometry" />
        </mxCell>
        <mxCell id="tj1XGYN1QX1Ru28_OsPs-30" value="&lt;font style=&quot;font-size: 20px&quot;&gt;ТУРЫ&lt;/font&gt;&lt;span style=&quot;color: rgba(0 , 0 , 0 , 0) ; font-family: monospace ; font-size: 0px&quot;&gt;%3CmxGraphModel%3E%3Croot%3E%3CmxCell%20id%3D%220%22%2F%3E%3CmxCell%20id%3D%221%22%20parent%3D%220%22%2F%3E%3CmxCell%20id%3D%222%22%20value%3D%22%26lt%3Bfont%20style%3D%26quot%3Bfont-size%3A%2020px%26quot%3B%26gt%3B%D0%93%D0%9B%D0%90%D0%92%D0%9D%D0%90%D0%AF%20%D0%A1%D0%A2%D0%A0%D0%90%D0%9D%D0%98%D0%A6%D0%90%26lt%3B%2Ffont%26gt%3B%22%20style%3D%22rounded%3D0%3BwhiteSpace%3Dwrap%3Bhtml%3D1%3BfillColor%3D%23ffe6cc%3BstrokeColor%3D%23d79b00%3B%22%20vertex%3D%221%22%20parent%3D%221%22%3E%3CmxGeometry%20x%3D%22787%22%20y%3D%2280%22%20width%3D%22180%22%20height%3D%2290%22%20as%3D%22geometry%22%2F%3E%3C%2FmxCell%3E%3C%2Froot%3E%3C%2FmxGraphModel%3E&lt;/span&gt;&lt;span style=&quot;color: rgba(0 , 0 , 0 , 0) ; font-family: monospace ; font-size: 0px&quot;&gt;%3CmxGraphModel%3E%3Croot%3E%3CmxCell%20id%3D%220%22%2F%3E%3CmxCell%20id%3D%221%22%20parent%3D%220%22%2F%3E%3CmxCell%20id%3D%222%22%20value%3D%22%26lt%3Bfont%20style%3D%26quot%3Bfont-size%3A%2020px%26quot%3B%26gt%3B%D0%93%D0%9B%D0%90%D0%92%D0%9D%D0%90%D0%AF%20%D0%A1%D0%A2%D0%A0%D0%90%D0%9D%D0%98%D0%A6%D0%90%26lt%3B%2Ffont%26gt%3B%22%20style%3D%22rounded%3D0%3BwhiteSpace%3Dwrap%3Bhtml%3D1%3BfillColor%3D%23ffe6cc%3BstrokeColor%3D%23d79b00%3B%22%20vertex%3D%221%22%20parent%3D%221%22%3E%3CmxGeometry%20x%3D%22787%22%20y%3D%2280%22%20width%3D%22180%22%20height%3D%2290%22%20as%3D%22geometry%22%2F%3E%3C%2FmxCell%3E%3C%2Froot%3E%3C%2FmxGraphModel%3E&lt;/span&gt;" style="rounded=0;whiteSpace=wrap;html=1;fillColor=#d5e8d4;strokeColor=#82b366;" vertex="1" parent="1">
          <mxGeometry x="180" y="230" width="160" height="90" as="geometry" />
        </mxCell>
        <mxCell id="tj1XGYN1QX1Ru28_OsPs-31" value="&lt;span style=&quot;font-size: 20px&quot;&gt;СКИДКИ&lt;/span&gt;" style="rounded=0;whiteSpace=wrap;html=1;fillColor=#d5e8d4;strokeColor=#82b366;" vertex="1" parent="1">
          <mxGeometry x="798.5" y="230" width="163" height="90" as="geometry" />
        </mxCell>
        <mxCell id="tj1XGYN1QX1Ru28_OsPs-32" value="&lt;font style=&quot;font-size: 17px&quot;&gt;Летние туры&lt;/font&gt;" style="rounded=0;whiteSpace=wrap;html=1;" vertex="1" parent="1">
          <mxGeometry x="640" y="110" width="130" height="60" as="geometry" />
        </mxCell>
        <mxCell id="tj1XGYN1QX1Ru28_OsPs-33" value="&lt;font style=&quot;font-size: 17px&quot;&gt;Зимние туры&lt;/font&gt;" style="rounded=0;whiteSpace=wrap;html=1;" vertex="1" parent="1">
          <mxGeometry x="490" y="110" width="130" height="60" as="geometry" />
        </mxCell>
        <mxCell id="tj1XGYN1QX1Ru28_OsPs-34" value="&lt;font style=&quot;font-size: 17px&quot;&gt;Водные маршруты&lt;/font&gt;" style="rounded=0;whiteSpace=wrap;html=1;" vertex="1" parent="1">
          <mxGeometry x="340" y="110" width="130" height="60" as="geometry" />
        </mxCell>
        <mxCell id="tj1XGYN1QX1Ru28_OsPs-35" value="&lt;font style=&quot;font-size: 17px&quot;&gt;Экскурсионные туры&lt;/font&gt;" style="rounded=0;whiteSpace=wrap;html=1;" vertex="1" parent="1">
          <mxGeometry x="190" y="110" width="130" height="60" as="geometry" />
        </mxCell>
        <mxCell id="tj1XGYN1QX1Ru28_OsPs-37" value="&lt;font style=&quot;font-size: 17px&quot;&gt;Вопрос-Ответ&lt;/font&gt;" style="rounded=0;whiteSpace=wrap;html=1;" vertex="1" parent="1">
          <mxGeometry x="990" y="770" width="130" height="60" as="geometry" />
        </mxCell>
        <mxCell id="tj1XGYN1QX1Ru28_OsPs-38" value="&lt;font style=&quot;font-size: 17px&quot;&gt;Карты туров&lt;/font&gt;" style="rounded=0;whiteSpace=wrap;html=1;" vertex="1" parent="1">
          <mxGeometry x="1150" y="770" width="130" height="60" as="geometry" />
        </mxCell>
        <mxCell id="tj1XGYN1QX1Ru28_OsPs-39" value="&lt;span style=&quot;font-size: 17px&quot;&gt;Туристу&lt;/span&gt;" style="rounded=0;whiteSpace=wrap;html=1;" vertex="1" parent="1">
          <mxGeometry x="1310" y="770" width="130" height="60" as="geometry" />
        </mxCell>
        <mxCell id="tj1XGYN1QX1Ru28_OsPs-40" value="&lt;font style=&quot;font-size: 17px&quot;&gt;О Байкале&lt;/font&gt;" style="rounded=0;whiteSpace=wrap;html=1;" vertex="1" parent="1">
          <mxGeometry x="1470" y="770" width="130" height="60" as="geometry" />
        </mxCell>
        <mxCell id="tj1XGYN1QX1Ru28_OsPs-41" value="&lt;span style=&quot;font-size: 17px&quot;&gt;Кругобайкальская железная дорога&lt;/span&gt;" style="rounded=0;whiteSpace=wrap;html=1;" vertex="1" parent="1">
          <mxGeometry x="180" y="360" width="160" height="70" as="geometry" />
        </mxCell>
        <mxCell id="tj1XGYN1QX1Ru28_OsPs-42" value="&lt;span style=&quot;font-size: 17px&quot;&gt;Сердце Байкала - остров Ольхон&lt;/span&gt;" style="rounded=0;whiteSpace=wrap;html=1;" vertex="1" parent="1">
          <mxGeometry x="180" y="450" width="160" height="70" as="geometry" />
        </mxCell>
        <mxCell id="tj1XGYN1QX1Ru28_OsPs-43" value="&lt;span style=&quot;font-size: 17px&quot;&gt;Пик Черского - КБЖД&lt;/span&gt;" style="rounded=0;whiteSpace=wrap;html=1;" vertex="1" parent="1">
          <mxGeometry x="180" y="540" width="160" height="70" as="geometry" />
        </mxCell>
        <mxCell id="tj1XGYN1QX1Ru28_OsPs-44" value="&lt;span style=&quot;font-size: 17px&quot;&gt;Шумак&lt;/span&gt;" style="rounded=0;whiteSpace=wrap;html=1;" vertex="1" parent="1">
          <mxGeometry x="180" y="630" width="160" height="70" as="geometry" />
        </mxCell>
        <mxCell id="tj1XGYN1QX1Ru28_OsPs-45" value="&lt;span style=&quot;font-size: 17px&quot;&gt;Шумак - КБЖД&lt;/span&gt;" style="rounded=0;whiteSpace=wrap;html=1;" vertex="1" parent="1">
          <mxGeometry x="180" y="720" width="160" height="70" as="geometry" />
        </mxCell>
        <mxCell id="tj1XGYN1QX1Ru28_OsPs-46" value="&lt;span style=&quot;font-size: 17px&quot;&gt;Долина вулканов&lt;/span&gt;" style="rounded=0;whiteSpace=wrap;html=1;" vertex="1" parent="1">
          <mxGeometry x="180" y="810" width="160" height="70" as="geometry" />
        </mxCell>
        <mxCell id="tj1XGYN1QX1Ru28_OsPs-47" value="&lt;span style=&quot;font-size: 17px&quot;&gt;Джип тур &quot;В долину Потухших вулканов&quot;&lt;/span&gt;" style="rounded=0;whiteSpace=wrap;html=1;" vertex="1" parent="1">
          <mxGeometry x="180" y="900" width="160" height="70" as="geometry" />
        </mxCell>
        <mxCell id="tj1XGYN1QX1Ru28_OsPs-48" value="&lt;span style=&quot;font-size: 17px&quot;&gt;Тур на байдарках &quot;Обратная сторона КБЖД&quot;&lt;/span&gt;" style="rounded=0;whiteSpace=wrap;html=1;" vertex="1" parent="1">
          <mxGeometry x="180" y="990" width="160" height="70" as="geometry" />
        </mxCell>
        <mxCell id="tj1XGYN1QX1Ru28_OsPs-49" value="&lt;span style=&quot;font-size: 17px&quot;&gt;Вокруг Байкала за 14 дней&lt;/span&gt;" style="rounded=0;whiteSpace=wrap;html=1;" vertex="1" parent="1">
          <mxGeometry x="180" y="1080" width="160" height="70" as="geometry" />
        </mxCell>
        <mxCell id="tj1XGYN1QX1Ru28_OsPs-50" value="&lt;span style=&quot;font-size: 17px&quot;&gt;По льду Байкала&lt;/span&gt;" style="rounded=0;whiteSpace=wrap;html=1;" vertex="1" parent="1">
          <mxGeometry x="180" y="1169" width="160" height="70" as="geometry" />
        </mxCell>
        <mxCell id="tj1XGYN1QX1Ru28_OsPs-51" value="&lt;span style=&quot;font-size: 17px&quot;&gt;Вокруг Ольхона&lt;/span&gt;" style="rounded=0;whiteSpace=wrap;html=1;" vertex="1" parent="1">
          <mxGeometry x="180" y="1260" width="160" height="70" as="geometry" />
        </mxCell>
        <mxCell id="tj1XGYN1QX1Ru28_OsPs-52" value="&lt;span style=&quot;font-size: 17px&quot;&gt;По ледяным просторам Малого моря&lt;/span&gt;" style="rounded=0;whiteSpace=wrap;html=1;" vertex="1" parent="1">
          <mxGeometry x="180" y="1350" width="160" height="70" as="geometry" />
        </mxCell>
        <mxCell id="tj1XGYN1QX1Ru28_OsPs-53" value="&lt;span style=&quot;font-size: 17px&quot;&gt;Автотур &quot;Ледовые приключения&quot;&lt;/span&gt;" style="rounded=0;whiteSpace=wrap;html=1;" vertex="1" parent="1">
          <mxGeometry x="180" y="1440" width="160" height="70" as="geometry" />
        </mxCell>
        <mxCell id="tj1XGYN1QX1Ru28_OsPs-54" value="&lt;span style=&quot;font-size: 17px&quot;&gt;Восхождение на Мунку-Сардык&lt;/span&gt;" style="rounded=0;whiteSpace=wrap;html=1;" vertex="1" parent="1">
          <mxGeometry x="180" y="1530" width="160" height="70" as="geometry" />
        </mxCell>
        <mxCell id="tj1XGYN1QX1Ru28_OsPs-55" value="&lt;span style=&quot;font-size: 17px&quot;&gt;&quot;Два брата: Байкал и Хубсугул&quot;&lt;/span&gt;" style="rounded=0;whiteSpace=wrap;html=1;" vertex="1" parent="1">
          <mxGeometry x="180" y="1620" width="160" height="70" as="geometry" />
        </mxCell>
        <mxCell id="tj1XGYN1QX1Ru28_OsPs-56" value="&lt;span style=&quot;font-size: 17px&quot;&gt;Май 2021&lt;/span&gt;" style="rounded=0;whiteSpace=wrap;html=1;" vertex="1" parent="1">
          <mxGeometry x="405" y="360" width="160" height="70" as="geometry" />
        </mxCell>
        <mxCell id="tj1XGYN1QX1Ru28_OsPs-57" value="&lt;span style=&quot;font-size: 17px&quot;&gt;Декабрь 2021&lt;/span&gt;" style="rounded=0;whiteSpace=wrap;html=1;" vertex="1" parent="1">
          <mxGeometry x="405" y="990" width="160" height="70" as="geometry" />
        </mxCell>
        <mxCell id="tj1XGYN1QX1Ru28_OsPs-58" value="&lt;span style=&quot;font-size: 17px&quot;&gt;Ноябрь 2021&lt;/span&gt;" style="rounded=0;whiteSpace=wrap;html=1;" vertex="1" parent="1">
          <mxGeometry x="405" y="900" width="160" height="70" as="geometry" />
        </mxCell>
        <mxCell id="tj1XGYN1QX1Ru28_OsPs-59" value="&lt;span style=&quot;font-size: 17px&quot;&gt;Июнь 2021&lt;/span&gt;" style="rounded=0;whiteSpace=wrap;html=1;" vertex="1" parent="1">
          <mxGeometry x="405" y="450" width="160" height="70" as="geometry" />
        </mxCell>
        <mxCell id="tj1XGYN1QX1Ru28_OsPs-60" value="&lt;span style=&quot;font-size: 17px&quot;&gt;Июль 2021&lt;/span&gt;" style="rounded=0;whiteSpace=wrap;html=1;" vertex="1" parent="1">
          <mxGeometry x="405" y="540" width="160" height="70" as="geometry" />
        </mxCell>
        <mxCell id="tj1XGYN1QX1Ru28_OsPs-61" value="&lt;span style=&quot;font-size: 17px&quot;&gt;Август 2021&lt;/span&gt;" style="rounded=0;whiteSpace=wrap;html=1;" vertex="1" parent="1">
          <mxGeometry x="405" y="630" width="160" height="70" as="geometry" />
        </mxCell>
        <mxCell id="tj1XGYN1QX1Ru28_OsPs-62" value="&lt;span style=&quot;font-size: 17px&quot;&gt;Сентябрь 2021&lt;/span&gt;" style="rounded=0;whiteSpace=wrap;html=1;" vertex="1" parent="1">
          <mxGeometry x="405" y="720" width="160" height="70" as="geometry" />
        </mxCell>
        <mxCell id="tj1XGYN1QX1Ru28_OsPs-63" value="&lt;span style=&quot;font-size: 17px&quot;&gt;Октябрь 2021&lt;/span&gt;" style="rounded=0;whiteSpace=wrap;html=1;" vertex="1" parent="1">
          <mxGeometry x="405" y="810" width="160" height="70" as="geometry" />
        </mxCell>
        <mxCell id="tj1XGYN1QX1Ru28_OsPs-65" value="&lt;span style=&quot;font-size: 17px&quot;&gt;Январь 2022&lt;/span&gt;" style="rounded=0;whiteSpace=wrap;html=1;" vertex="1" parent="1">
          <mxGeometry x="405" y="1080" width="160" height="70" as="geometry" />
        </mxCell>
        <mxCell id="tj1XGYN1QX1Ru28_OsPs-66" value="&lt;span style=&quot;font-size: 17px&quot;&gt;Февраль 2022&lt;/span&gt;" style="rounded=0;whiteSpace=wrap;html=1;" vertex="1" parent="1">
          <mxGeometry x="405" y="1169" width="160" height="70" as="geometry" />
        </mxCell>
        <mxCell id="tj1XGYN1QX1Ru28_OsPs-67" value="&lt;span style=&quot;font-size: 17px&quot;&gt;&amp;nbsp;Март 2022&lt;/span&gt;" style="rounded=0;whiteSpace=wrap;html=1;" vertex="1" parent="1">
          <mxGeometry x="405" y="1260" width="160" height="70" as="geometry" />
        </mxCell>
        <mxCell id="tj1XGYN1QX1Ru28_OsPs-70" value="&lt;span style=&quot;font-size: 17px&quot;&gt;Апрель 2022&lt;br&gt;&lt;/span&gt;" style="rounded=0;whiteSpace=wrap;html=1;" vertex="1" parent="1">
          <mxGeometry x="405" y="1350" width="160" height="70" as="geometry" />
        </mxCell>
        <mxCell id="tj1XGYN1QX1Ru28_OsPs-71" value="&lt;span style=&quot;font-size: 17px&quot;&gt;Ссылки на социальные сети&lt;/span&gt;" style="rounded=0;whiteSpace=wrap;html=1;" vertex="1" parent="1">
          <mxGeometry x="1220" y="360" width="160" height="70" as="geometry" />
        </mxCell>
        <mxCell id="tj1XGYN1QX1Ru28_OsPs-72" value="&lt;span style=&quot;font-size: 17px&quot;&gt;Ссылки на почту&lt;/span&gt;" style="rounded=0;whiteSpace=wrap;html=1;" vertex="1" parent="1">
          <mxGeometry x="1220" y="450" width="160" height="70" as="geometry" />
        </mxCell>
        <mxCell id="tj1XGYN1QX1Ru28_OsPs-73" value="&lt;span style=&quot;font-size: 17px&quot;&gt;Ссылки на аккаунты сотрудничества&lt;/span&gt;" style="rounded=0;whiteSpace=wrap;html=1;" vertex="1" parent="1">
          <mxGeometry x="1220" y="540" width="160" height="70" as="geometry" />
        </mxCell>
        <mxCell id="tj1XGYN1QX1Ru28_OsPs-76" value="" style="endArrow=classic;html=1;exitX=0;exitY=0.5;exitDx=0;exitDy=0;entryX=0;entryY=0.5;entryDx=0;entryDy=0;" edge="1" parent="1" source="tj1XGYN1QX1Ru28_OsPs-30" target="tj1XGYN1QX1Ru28_OsPs-55">
          <mxGeometry width="50" height="50" relative="1" as="geometry">
            <mxPoint x="550" y="470" as="sourcePoint" />
            <mxPoint x="140" y="1670" as="targetPoint" />
            <Array as="points">
              <mxPoint x="150" y="275" />
              <mxPoint x="150" y="1655" />
            </Array>
          </mxGeometry>
        </mxCell>
        <mxCell id="tj1XGYN1QX1Ru28_OsPs-78" value="" style="endArrow=classic;html=1;exitX=0;exitY=0.5;exitDx=0;exitDy=0;entryX=0;entryY=0.5;entryDx=0;entryDy=0;" edge="1" parent="1" source="tj1XGYN1QX1Ru28_OsPs-27" target="tj1XGYN1QX1Ru28_OsPs-70">
          <mxGeometry width="50" height="50" relative="1" as="geometry">
            <mxPoint x="550" y="530" as="sourcePoint" />
            <mxPoint x="380" y="1390" as="targetPoint" />
            <Array as="points">
              <mxPoint x="370" y="275" />
              <mxPoint x="370" y="1385" />
            </Array>
          </mxGeometry>
        </mxCell>
        <mxCell id="tj1XGYN1QX1Ru28_OsPs-83" value="&lt;font style=&quot;font-size: 17px&quot;&gt;Ссылки на страницы из футера сайта&lt;/font&gt;" style="text;html=1;strokeColor=none;fillColor=none;align=center;verticalAlign=middle;whiteSpace=wrap;rounded=0;" vertex="1" parent="1">
          <mxGeometry x="990" y="860" width="610" height="40" as="geometry" />
        </mxCell>
        <mxCell id="tj1XGYN1QX1Ru28_OsPs-84" value="" style="endArrow=classic;html=1;exitX=0;exitY=0;exitDx=0;exitDy=0;entryX=0.5;entryY=0;entryDx=0;entryDy=0;" edge="1" parent="1" source="tj1XGYN1QX1Ru28_OsPs-1" target="tj1XGYN1QX1Ru28_OsPs-35">
          <mxGeometry width="50" height="50" relative="1" as="geometry">
            <mxPoint x="770" y="230" as="sourcePoint" />
            <mxPoint x="240" y="90" as="targetPoint" />
            <Array as="points">
              <mxPoint x="255" y="80" />
            </Array>
          </mxGeometry>
        </mxCell>
        <mxCell id="tj1XGYN1QX1Ru28_OsPs-85" value="" style="endArrow=classic;html=1;exitX=0.5;exitY=1;exitDx=0;exitDy=0;entryX=0.5;entryY=0;entryDx=0;entryDy=0;" edge="1" parent="1" source="tj1XGYN1QX1Ru28_OsPs-1" target="tj1XGYN1QX1Ru28_OsPs-30">
          <mxGeometry width="50" height="50" relative="1" as="geometry">
            <mxPoint x="770" y="430" as="sourcePoint" />
            <mxPoint x="260" y="200" as="targetPoint" />
            <Array as="points">
              <mxPoint x="880" y="200" />
              <mxPoint x="260" y="200" />
            </Array>
          </mxGeometry>
        </mxCell>
        <mxCell id="tj1XGYN1QX1Ru28_OsPs-86" value="" style="endArrow=classic;html=1;entryX=0.5;entryY=0;entryDx=0;entryDy=0;" edge="1" parent="1" target="tj1XGYN1QX1Ru28_OsPs-25">
          <mxGeometry width="50" height="50" relative="1" as="geometry">
            <mxPoint x="870" y="200" as="sourcePoint" />
            <mxPoint x="1520" y="140" as="targetPoint" />
            <Array as="points">
              <mxPoint x="1510" y="200" />
            </Array>
          </mxGeometry>
        </mxCell>
        <mxCell id="tj1XGYN1QX1Ru28_OsPs-88" value="" style="endArrow=classic;html=1;entryX=0.5;entryY=0;entryDx=0;entryDy=0;" edge="1" parent="1" target="tj1XGYN1QX1Ru28_OsPs-27">
          <mxGeometry width="50" height="50" relative="1" as="geometry">
            <mxPoint x="485" y="200" as="sourcePoint" />
            <mxPoint x="990" y="380" as="targetPoint" />
          </mxGeometry>
        </mxCell>
        <mxCell id="tj1XGYN1QX1Ru28_OsPs-90" value="" style="endArrow=classic;html=1;entryX=0.5;entryY=0;entryDx=0;entryDy=0;" edge="1" parent="1">
          <mxGeometry width="50" height="50" relative="1" as="geometry">
            <mxPoint x="679.1700000000002" y="200" as="sourcePoint" />
            <mxPoint x="679.1700000000002" y="230" as="targetPoint" />
          </mxGeometry>
        </mxCell>
        <mxCell id="tj1XGYN1QX1Ru28_OsPs-91" value="" style="endArrow=classic;html=1;entryX=0.5;entryY=0;entryDx=0;entryDy=0;" edge="1" parent="1">
          <mxGeometry width="50" height="50" relative="1" as="geometry">
            <mxPoint x="879.1700000000003" y="200" as="sourcePoint" />
            <mxPoint x="879.1700000000003" y="230" as="targetPoint" />
          </mxGeometry>
        </mxCell>
        <mxCell id="tj1XGYN1QX1Ru28_OsPs-92" value="" style="endArrow=classic;html=1;entryX=0.5;entryY=0;entryDx=0;entryDy=0;" edge="1" parent="1">
          <mxGeometry width="50" height="50" relative="1" as="geometry">
            <mxPoint x="1079.17" y="200" as="sourcePoint" />
            <mxPoint x="1079.17" y="230" as="targetPoint" />
          </mxGeometry>
        </mxCell>
        <mxCell id="tj1XGYN1QX1Ru28_OsPs-93" value="" style="endArrow=classic;html=1;entryX=0.5;entryY=0;entryDx=0;entryDy=0;" edge="1" parent="1" target="tj1XGYN1QX1Ru28_OsPs-26">
          <mxGeometry width="50" height="50" relative="1" as="geometry">
            <mxPoint x="1300" y="200" as="sourcePoint" />
            <mxPoint x="535.0000000000002" y="280" as="targetPoint" />
          </mxGeometry>
        </mxCell>
        <mxCell id="tj1XGYN1QX1Ru28_OsPs-94" value="" style="endArrow=classic;html=1;entryX=0;entryY=0.5;entryDx=0;entryDy=0;exitX=0;exitY=0.5;exitDx=0;exitDy=0;" edge="1" parent="1" source="tj1XGYN1QX1Ru28_OsPs-26" target="tj1XGYN1QX1Ru28_OsPs-73">
          <mxGeometry width="50" height="50" relative="1" as="geometry">
            <mxPoint x="1080" y="510" as="sourcePoint" />
            <mxPoint x="1000" y="380" as="targetPoint" />
            <Array as="points">
              <mxPoint x="1190" y="275" />
              <mxPoint x="1190" y="575" />
            </Array>
          </mxGeometry>
        </mxCell>
      </root>
    </mxGraphModel>
  </diagram>
</mxfile>
